<svg width="81" height="79" viewBox="0 0 81 79" fill="none" xmlns="http://www.w3.org/2000/svg">
<g id="Dolar">
<path id="icon/editor/monetization_on_24px" fill-rule="evenodd" clip-rule="evenodd" d="M6.75 39.5C6.75 21.33 21.87 6.58333 40.5 6.58333C59.13 6.58333 74.25 21.33 74.25 39.5C74.25 57.67 59.13 72.4167 40.5 72.4167C21.87 72.4167 6.75 57.67 6.75 39.5ZM45.2588 61.4554V59.5462C51.1313 58.46 55.755 55.1683 55.8225 49.1446C55.8225 40.8496 48.5325 37.9858 41.715 36.2742C34.8975 34.5625 32.7038 32.7521 32.7038 29.9871C32.7038 26.8271 35.7413 24.5887 40.8038 24.5887C45.0563 24.5887 47.1825 26.2017 47.9588 28.7033C48.2963 29.8883 49.3088 30.7442 50.5575 30.7442H51.435C53.4263 30.7442 54.8438 28.835 54.1688 27.0246C52.8863 23.5354 49.95 20.7046 45.2925 19.5854V17.5446C45.2925 15.1417 43.2675 13.1667 40.8038 13.1667H40.77C38.3063 13.1667 36.2813 15.1417 36.2813 17.5446V19.5196C30.4763 20.7375 25.785 24.4242 25.785 30.0858C25.785 36.8337 31.5225 40.1912 39.8925 42.1662C47.4188 43.9108 48.9038 46.4783 48.9038 49.2104C48.9038 51.2183 47.4188 54.4442 40.8038 54.4442C35.8763 54.4442 33.3113 52.7325 32.3325 50.2637C31.86 49.1117 30.8475 48.2887 29.5988 48.2887H28.7888C26.7638 48.2887 25.3125 50.2967 26.0888 52.1071C27.7763 56.1558 31.7588 58.5587 36.2475 59.4804V61.4554C36.2475 63.8583 38.2725 65.8333 40.7363 65.8333H40.77C43.2338 65.8333 45.2588 63.8583 45.2588 61.4554Z" fill="white"/>
</g>
</svg>
