<svg width="1301" height="821" viewBox="0 0 1301 821" fill="none" xmlns="http://www.w3.org/2000/svg">
<path opacity="0.5" d="M1219.9 742.698L1218.24 741.87H93.557C55.2533 718.681 25.0243 682.033 9.70282 640.003C1.00683 616.606 -2.92707 590.725 2.45616 566.294C18.3988 495.898 105.566 461.735 127.72 392.995C141.178 351.379 127.72 306.242 128.548 262.555C129.376 214.934 149.046 166.278 187.35 138.12C262.508 83.2521 371.415 124.455 458.996 92.9834C516.969 72.0716 561.07 20.7238 620.493 4.78115C670.805 -8.67694 727.743 6.85162 763.977 44.1202C809.32 90.4988 824.02 166.278 880.959 197.335C939.553 229.014 1025.89 203.133 1067.72 254.894C1111.61 309.141 1063.57 400.863 1106.64 455.73C1120.72 473.537 1142.05 483.889 1160.68 496.933C1235.84 549.937 1262.34 661.122 1219.9 742.698Z" fill="url(#paint0_linear)"/>
<path opacity="0.5" d="M1280.35 741.87H155.671C117.368 718.681 87.1386 682.033 71.8171 640.003C63.1211 616.606 59.1872 590.725 64.5704 566.294C80.5131 495.898 167.68 461.735 189.834 392.995C203.292 351.379 189.834 306.242 190.662 262.555C191.491 214.934 211.16 166.278 249.464 138.12C324.622 83.2521 433.529 124.455 521.11 92.9834C579.083 72.0716 623.184 20.7238 682.607 4.78115C732.92 -8.67694 789.858 6.85162 826.091 44.1202C871.434 90.4988 886.135 166.278 943.073 197.335C1001.67 229.014 1088.01 203.133 1129.83 254.894C1173.72 309.141 1125.69 400.863 1168.75 455.73C1182.83 473.537 1204.16 483.889 1222.79 496.933C1297.95 549.937 1322.8 660.293 1280.35 741.87Z" fill="url(#paint1_linear)"/>
<path opacity="0.5" d="M93.1431 741.87H1279.11C1279.11 741.87 1169.58 820.134 674.946 820.134C180.31 820.134 93.1431 741.87 93.1431 741.87Z" fill="#C5D4EF"/>
<path d="M662.731 661.672C654.242 658.981 644.096 661.051 636.228 665.813C625.255 672.439 617.594 683.205 608.898 692.729C600.202 702.254 589.436 711.157 576.599 711.985C564.59 712.606 553.41 705.98 544.092 698.32C520.696 678.236 503.304 648.214 473.696 640.139C468.934 638.897 463.965 638.276 458.996 639.311C452.784 640.761 447.608 644.694 443.26 649.249C428.353 664.778 421.934 687.967 404.335 700.39C390.049 710.536 370.172 711.157 354.23 703.91C340.565 697.699 329.798 686.725 318.204 677.201C306.609 667.677 292.737 659.395 277.829 660.016C267.063 660.637 257.332 665.606 247.186 669.333C237.041 673.06 225.446 675.13 216.129 669.954C201.429 661.672 197.702 642.831 198.737 626.06C203.706 605.77 213.231 585.479 232.279 578.232C252.984 570.364 277.415 581.131 298.12 573.263C329.177 561.461 333.939 516.325 362.719 499.347C376.798 491.065 395.639 491.479 409.304 500.382C435.392 517.36 438.912 557.942 466.45 572.435C479.908 579.681 496.057 578.646 511.379 579.474C526.7 580.303 543.678 584.651 551.546 597.695C557.965 608.461 556.308 622.126 556.101 634.549C555.894 647.179 558.793 661.672 569.766 667.677C583.431 674.923 599.167 664.778 613.246 658.36C629.189 651.527 649.48 650.078 662.731 661.672C662.523 661.465 662.523 661.465 662.731 661.672Z" fill="url(#paint2_linear)"/>
<path d="M1091.94 661.465C1083.45 658.773 1073.31 660.844 1065.44 665.606C1054.47 672.232 1046.8 682.998 1038.11 692.522C1029.41 702.046 1018.65 710.949 1005.81 711.778C993.8 712.399 982.62 705.773 973.302 698.113C949.906 678.029 932.514 648.007 902.906 639.932C898.144 638.69 893.175 638.069 888.206 639.104C881.994 640.553 876.818 644.487 872.47 649.042C857.563 664.571 851.144 687.76 833.545 700.183C819.259 710.328 799.383 710.95 783.44 703.703C769.775 697.491 759.008 686.518 747.414 676.994C735.819 667.469 721.947 659.188 707.039 659.809C696.273 660.43 686.542 665.399 676.396 669.126C666.251 672.853 654.656 674.923 645.339 669.747C630.639 661.465 626.912 642.624 627.947 625.853C632.916 605.562 642.44 585.272 661.489 578.025C682.194 570.157 706.625 580.924 727.33 573.056C758.387 561.254 763.149 516.118 791.929 499.14C806.008 490.858 824.849 491.272 838.514 500.175C864.602 517.153 868.122 557.734 895.66 572.228C909.118 579.474 925.267 578.439 940.589 579.267C955.91 580.095 972.888 584.443 980.756 597.487C987.175 608.254 985.518 621.919 985.311 634.342C985.104 646.972 988.003 661.465 998.976 667.47C1012.64 674.716 1028.38 664.571 1042.46 658.152C1058.4 651.527 1078.69 649.87 1091.94 661.465C1091.94 661.465 1091.73 661.258 1091.94 661.465Z" fill="url(#paint3_linear)"/>
<g opacity="0.2">
<path opacity="0.2" d="M1000.84 733.725L873.92 656.082C862.325 649.042 858.598 633.514 865.638 621.919L909.532 550.074C916.572 538.479 932.1 534.752 943.695 541.792L1070.61 619.435C1082.21 626.474 1085.94 642.003 1078.9 653.597L1035 725.443C1027.76 737.038 1012.43 740.764 1000.84 733.725Z" fill="black"/>
<path opacity="0.2" d="M991.523 728.134L864.602 650.492C853.008 643.452 849.281 627.924 856.321 616.329L900.215 544.483C907.254 532.889 922.783 529.162 934.377 536.201L1061.3 613.844C1072.89 620.884 1076.62 636.412 1069.58 648.007L1025.69 719.853C1018.65 731.447 1003.32 735.174 991.523 728.134Z" fill="black"/>
<path opacity="0.2" d="M955.082 575.54L909.118 650.699L999.183 654.219L955.082 575.54Z" fill="black"/>
</g>
<path d="M1007.05 727.513L880.131 649.871C868.536 642.831 864.809 627.302 871.849 615.708L915.743 543.862C922.783 532.268 938.311 528.541 949.906 535.58L1076.83 613.223C1088.42 620.263 1092.15 635.791 1085.11 647.386L1041.21 719.231C1033.97 730.826 1018.65 734.553 1007.05 727.513Z" fill="url(#paint4_linear)"/>
<path d="M997.734 721.923L870.814 644.28C859.219 637.241 855.492 621.712 862.532 610.117L906.426 538.272C913.466 526.677 928.994 522.95 940.589 529.99L1067.51 607.633C1079.1 614.672 1082.83 630.201 1075.79 641.796L1031.9 713.641C1024.86 725.236 1009.54 728.963 997.734 721.923Z" fill="url(#paint5_linear)"/>
<path d="M961.293 569.329L915.329 644.487L1005.39 648.007L961.293 569.329Z" fill="url(#paint6_linear)"/>
<path d="M522.974 743.87C519.661 718.403 535.811 691.694 559.828 682.791C579.084 675.545 603.722 677.822 616.559 661.672C622.978 653.597 624.427 643.038 626.498 632.893C626.912 630.615 627.533 628.338 627.947 626.06C626.912 642.831 630.846 661.672 645.339 669.954C654.656 675.13 666.458 673.06 676.396 669.333C686.541 665.606 696.273 660.43 707.039 660.016C721.946 659.188 735.819 667.677 747.413 677.201C759.008 686.725 769.774 697.699 783.44 703.91C799.382 710.95 819.259 710.328 833.545 700.39C851.144 687.967 857.563 664.778 872.47 649.249C876.818 644.694 882.201 640.761 888.205 639.311C892.968 638.276 898.144 638.897 902.906 640.139C932.514 648.214 949.906 678.236 973.302 698.32C982.412 706.188 993.8 712.813 1005.81 711.985C1018.65 711.157 1029.41 702.254 1038.11 692.729C1046.8 683.205 1054.46 672.439 1065.44 665.813C1073.31 661.051 1083.45 658.981 1091.94 661.672C1105.61 673.888 1108.09 697.284 1125.07 704.531C1139.77 710.743 1156.33 700.804 1172.27 702.254C1192.57 704.324 1206.02 724.408 1212.23 744.077H522.974V743.87Z" fill="url(#paint7_linear)"/>
<path d="M286.526 675.752V424.189C286.526 424.189 288.389 435.783 296.464 435.783C304.539 435.783 306.402 424.189 306.402 424.189V675.752H286.526V675.752Z" fill="url(#paint8_linear)"/>
<path d="M238.284 675.752V424.189C238.284 424.189 240.147 434.334 246.773 434.334C253.398 434.334 255.262 424.189 255.262 424.189V675.752H238.284V675.752Z" fill="url(#paint9_linear)"/>
<path d="M255.262 675.752V424.189C255.262 424.189 258.574 437.233 270.79 437.233C283.006 437.233 286.319 424.189 286.319 424.189V675.752H255.262Z" fill="url(#paint10_linear)"/>
<path d="M238.284 424.189L258.781 369.528C266.028 385.471 287.147 377.603 287.147 377.603L306.402 424.189C306.402 424.189 304.539 435.783 296.464 435.783C288.389 435.783 286.526 424.189 286.526 424.189C286.526 424.189 283.213 437.233 270.997 437.233C258.781 437.233 255.469 424.189 255.469 424.189C255.469 424.189 253.605 434.334 246.98 434.334C240.147 434.334 238.284 424.189 238.284 424.189Z" fill="url(#paint11_linear)"/>
<path d="M258.782 369.528L260.231 365.801C260.852 363.938 262.302 362.489 263.958 361.868L271.205 358.555C274.931 356.898 279.279 358.555 280.729 362.282L287.147 377.603C287.147 377.603 266.028 385.678 258.782 369.528Z" fill="#FD951F"/>
<path d="M93.5573 743.87C90.2445 718.403 106.394 691.694 130.412 682.791C149.667 675.545 174.306 677.822 187.143 661.672C193.561 653.597 195.011 643.038 197.081 632.893C197.495 630.615 198.116 628.338 198.53 626.06C197.495 642.831 201.429 661.672 215.922 669.954C225.239 675.13 237.041 673.06 246.979 669.333C257.125 665.606 266.856 660.43 277.622 660.016C292.53 659.188 306.402 667.677 317.997 677.201C329.591 686.725 340.358 697.699 354.023 703.91C369.966 710.95 389.842 710.328 404.128 700.39C421.728 687.967 428.146 664.778 443.053 649.249C447.401 644.694 452.785 640.761 458.789 639.311C463.551 638.276 468.727 638.897 473.489 640.139C503.097 648.214 520.489 678.236 543.886 698.32C552.996 706.188 564.383 712.813 576.392 711.985C589.229 711.157 599.995 702.254 608.691 692.729C617.387 683.205 625.048 672.439 636.022 665.813C643.889 661.051 654.035 658.981 662.524 661.672C676.189 673.888 678.673 697.284 695.651 704.531C710.352 710.743 726.916 700.804 742.858 702.254C763.149 704.324 776.607 724.408 782.818 744.077H93.5573V743.87Z" fill="url(#paint12_linear)"/>
<g opacity="0.2">
<path opacity="0.2" d="M1064.4 234.326H775.156C761.491 234.326 750.311 223.146 750.311 209.481V183.393C750.311 169.727 761.491 158.547 775.156 158.547H1064.4C1078.07 158.547 1089.25 169.727 1089.25 183.393V209.481C1089.25 223.146 1078.07 234.326 1064.4 234.326Z" fill="black"/>
</g>
<path d="M1070.61 228.115H781.367C767.702 228.115 756.521 216.934 756.521 203.269V177.181C756.521 163.516 767.702 152.335 781.367 152.335H1070.61C1084.28 152.335 1095.46 163.516 1095.46 177.181V203.269C1095.46 216.934 1084.28 228.115 1070.61 228.115Z" fill="url(#paint13_linear)"/>
<path d="M801.452 162.481L808.905 177.595L825.676 180.08L813.667 191.882L816.359 208.445L801.452 200.578L786.544 208.445L789.443 191.882L777.227 180.08L793.998 177.595L801.452 162.481Z" fill="url(#paint14_linear)"/>
<path d="M856.111 162.481L863.565 177.595L880.336 180.08L868.327 191.882L871.226 208.445L856.111 200.578L841.204 208.445L844.103 191.882L831.887 180.08L848.658 177.595L856.111 162.481Z" fill="url(#paint15_linear)"/>
<path d="M923.403 191.467L926.094 208.031L911.187 200.163L918.641 177.181L935.412 179.666L923.403 191.467Z" fill="url(#paint16_linear)"/>
<path d="M918.641 177.181L911.187 200.163L896.28 208.031L899.178 191.467L886.962 179.666L903.733 177.181L911.187 162.067L918.641 177.181Z" fill="url(#paint17_linear)"/>
<path d="M965.847 162.067L973.301 177.181L990.072 179.666L978.063 191.467L980.755 208.031L965.847 200.163L950.94 208.031L953.838 191.467L941.623 179.666L958.393 177.181L965.847 162.067Z" fill="url(#paint18_linear)"/>
<path d="M1056.33 128.732L1063.57 167.45L1099.6 183.393L1065.02 202.234L1060.88 241.573L1032.31 214.45L993.798 222.732L1010.78 187.119L990.9 153.164L1030.03 158.133L1056.33 128.732Z" fill="url(#paint19_linear)"/>
<path d="M291.495 517.567C291.495 517.567 255.054 556.078 286.733 591.483C286.733 591.483 262.922 633.721 305.16 664.157C305.16 664.157 297.085 733.104 358.578 743.663H657.554L625.876 542.62C625.876 542.62 616.559 497.484 582.189 469.325C547.612 441.167 513.242 362.075 516.141 310.313C519.247 258.344 399.159 269.524 431.873 371.806C464.379 474.087 452.785 475.537 410.961 465.391C369.551 454.832 297.706 437.44 291.495 517.567Z" fill="url(#paint20_linear)"/>
<path d="M799.175 743.663H625.255V538.686C625.255 525.021 636.435 513.84 650.101 513.84H774.329C787.994 513.84 799.175 525.021 799.175 538.686V743.663Z" fill="url(#paint21_linear)"/>
<path d="M761.286 728.342C774.093 728.342 784.475 717.959 784.475 705.152C784.475 692.345 774.093 681.963 761.286 681.963C748.478 681.963 738.096 692.345 738.096 705.152C738.096 717.959 748.478 728.342 761.286 728.342Z" fill="url(#paint22_linear)"/>
<path opacity="0.67" d="M596.889 483.819C596.889 483.819 616.559 639.311 798.967 668.298V538.686C798.967 538.686 799.796 515.704 774.122 513.84H649.893C649.893 513.84 626.911 513.426 625.048 538.686C625.048 538.686 615.109 503.074 596.889 483.819Z" fill="black"/>
<path d="M541.194 303.273C535.603 315.282 535.81 329.982 541.401 342.198L540.159 342.819C538.088 338.471 536.432 333.709 533.533 329.982C528.564 323.564 520.696 320.458 513.449 316.938C506.203 313.418 498.749 308.656 496.264 300.996C493.987 293.956 496.679 286.088 500.405 279.67C504.132 273.251 508.687 267.04 510.965 260C516.762 240.331 502.062 218.177 510.344 199.335C515.106 188.983 525.872 182.564 536.432 179.045C547.198 175.318 558.586 173.661 568.938 168.692C577.841 164.551 585.502 157.926 591.299 149.851C599.995 137.842 604.343 121.9 616.766 113.618C624.013 108.648 633.33 107.199 642.026 107.613C655.277 108.234 668.321 113.204 678.259 121.9C687.576 130.181 693.788 141.983 694.823 154.199C690.268 141.155 681.779 134.944 678.88 133.287C679.087 143.018 674.946 152.75 668.528 160.203C661.902 167.864 652.999 173.247 643.682 176.974C639.541 178.631 635.4 179.873 631.052 179.459C629.603 177.181 626.704 175.525 624.013 175.732C621.114 175.939 618.215 177.802 617.18 180.701C616.559 182.564 616.352 184.428 616.559 186.291C617.594 192.917 622.77 198.507 629.189 200.163C628.982 209.688 619.665 217.555 610.348 220.04C600.409 222.732 589.643 221.489 579.498 222.939C571.216 223.974 562.934 226.873 555.687 231.014C551.339 233.498 546.991 236.811 544.921 241.366C538.709 254.41 552.167 269.317 550.304 283.604C549.062 290.643 544.299 296.648 541.194 303.273Z" fill="#1F1C38"/>
<path d="M630.638 200.371C634.364 213.829 628.774 229.771 616.972 237.432C610.968 241.366 603.928 243.229 596.889 245.3C590.263 247.163 583.638 249.441 578.048 253.582C573.285 257.309 570.387 262.899 569.766 268.696C567.488 288.159 571.008 319.423 575.563 347.581C567.695 354.621 555.686 358.762 547.197 352.55C543.885 350.066 542.021 346.546 540.158 342.819L541.4 342.198C535.603 330.189 535.603 315.489 541.193 303.273C544.299 296.648 549.061 290.643 549.889 283.397C551.752 269.11 538.501 254.203 544.506 241.159C546.576 236.604 550.924 233.291 555.272 230.806C562.519 226.666 570.801 223.767 579.083 222.732C589.435 221.489 599.995 222.525 609.933 219.833C619.457 217.348 628.567 209.481 628.774 199.956C629.602 200.163 630.223 200.163 630.638 200.371Z" fill="#111023"/>
<path d="M663.403 219.556L668 248.872C665.284 248.216 662.567 247.778 660.269 247.56C640.836 235.308 640 210.586 640 210.586L663.403 219.556Z" fill="#F79244"/>
<path d="M630.539 200.324C629.912 200.324 629.494 200.114 628.867 199.903C622.387 198.222 617.161 192.545 616.116 185.818C615.907 183.926 615.907 181.824 616.743 180.142C617.788 177.409 620.715 175.307 623.641 175.097C626.358 174.886 629.285 176.568 630.748 178.881C635.138 179.301 639.527 178.04 643.499 176.358C652.905 172.574 661.893 167.108 668.582 159.33C675.062 151.761 679.242 141.881 679.033 132C681.96 133.892 690.739 139.989 695.129 153.233C697.846 161.222 699.1 171.523 696.801 184.977C689.694 225.972 666.701 220.506 664.192 220.716L640.781 211.886C640.781 211.886 641.617 235.642 661.057 247.415C663.356 248.886 665.865 250.148 668.791 250.989C660.221 291.352 616.534 237.534 616.534 237.534C628.658 229.966 634.511 213.989 630.539 200.324Z" fill="url(#paint23_linear)"/>
<path d="M996.49 733.725L932.306 746.976L906.425 701.425L919.676 746.976H906.425L868.949 643.659H919.262L950.112 698.734L996.49 733.725Z" fill="#1F1C38"/>
<path d="M942.657 672.439L934.169 676.166L891.931 695.007L882.614 699.148L847.209 613.637L807.87 513.426L799.174 491.272C799.174 491.272 747.205 530.197 664.386 532.889C581.567 535.58 595.232 449.656 595.232 449.656L686.54 420.048L694.822 421.083L697.927 408.66L706.209 406.383C708.073 407.004 709.936 407.211 711.8 407.004V421.083H834.786C838.306 422.739 851.557 451.933 866.878 488.581C894.208 552.765 942.657 672.439 942.657 672.439Z" fill="url(#paint24_linear)"/>
<path d="M835.2 421.083H870.191C870.191 421.083 868.949 461.457 867.293 488.581C851.971 451.933 838.72 422.739 835.2 421.083Z" fill="url(#paint25_linear)"/>
<path d="M830.024 697.698L847.002 751.324L792.342 730.412L794.205 675.337L771.016 720.888L761.078 715.505L792.342 621.091L838.513 638.069L830.024 697.698Z" fill="#1F1C38"/>
<path d="M847.002 613.844L836.442 671.818L776.398 651.941L807.456 513.633L847.002 613.844Z" fill="url(#paint26_linear)"/>
<path d="M819.257 207.203C821.535 202.441 824.02 197.886 827.746 194.159C828.161 193.952 828.368 193.538 828.989 193.538C829.403 193.538 829.817 194.159 829.817 194.78C830.438 197.472 830.024 200.371 829.196 203.269C828.16 206.996 826.918 210.516 825.676 214.243C824.434 217.763 822.984 221.489 821.742 225.009C825.262 227.908 828.989 231.014 832.301 234.119C834.993 236.604 837.685 239.502 838.72 243.022C840.169 247.991 837.892 253.375 834.579 257.309C831.266 261.242 826.918 264.348 823.191 267.868C821.328 269.524 819.465 271.595 817.808 273.458L792.341 266.626C800.623 246.542 809.526 226.666 819.257 207.203Z" fill="url(#paint27_linear)"/>
<path d="M668.441 249.243L668 248.5C675.251 249.962 683.564 251.122 687.915 253.002C708.217 261.982 755.865 296.441 755.865 296.441L795.019 256.761L797.505 258.432L819.464 273.259L820.5 274.095L764.773 334.659C760.215 338.835 753.793 340.297 747.993 338L709.46 323.799C710.289 322.128 710.496 320.875 710.496 320.875C712.36 294.352 678.079 259.521 670 251.585C668.609 251.278 668.441 249.243 668.441 249.243Z" fill="url(#paint28_linear)"/>
<path d="M670 251.796C670 252.502 668.5 251.091 668.5 251.796C664.816 250.033 663.395 249.116 660.5 247C663.132 247.705 664.316 247.795 668 248.5L670 251.796Z" fill="#F79244"/>
<path d="M704.553 409.074H703.104V409.281C701.447 409.488 699.791 409.281 698.342 408.867L701.862 395.616C715.734 394.167 728.364 387.541 741.615 382.986C748.033 380.916 755.28 379.467 761.077 382.779C766.046 385.885 768.324 391.889 769.98 397.48C770.808 400.378 771.637 403.484 772.465 406.383V406.797L704.553 409.074Z" fill="url(#paint29_linear)"/>
<path d="M709.937 323.357C708.28 327.084 703.932 333.709 694.822 337.022L700.205 389.819L626.911 373.669C626.911 373.669 616.972 294.784 616.351 270.56C615.73 246.335 596.889 245.093 596.889 245.093C603.721 243.022 610.968 241.159 616.972 237.225C616.972 237.225 659.511 288.253 668 248.5C668.5 248.5 670 251 671 251.5C679.075 259.368 713.042 294.163 711.179 320.458C711.179 320.458 710.765 321.7 709.937 323.357Z" fill="url(#paint30_linear)"/>
<path d="M575.562 347.374C571.007 319.423 567.488 288.159 569.765 268.489C570.386 262.485 573.285 256.894 578.047 253.375C583.43 249.234 590.263 247.163 596.888 245.093C596.888 245.093 615.73 246.335 616.351 270.56C616.972 294.784 626.91 373.669 626.91 373.669L700.205 389.819L702.897 390.44L701.654 395.409L698.135 408.66L695.029 421.083L686.747 420.048L597.509 409.074C591.505 408.246 586.536 403.898 585.294 397.894C582.809 386.92 578.875 368.079 575.562 347.374Z" fill="url(#paint31_linear)"/>
<path d="M686.747 420.048L595.232 449.656L597.303 409.074L686.747 420.048Z" fill="url(#paint32_linear)"/>
<path d="M924.024 299.546L870.191 421.083H836.443H806.835H703.104V409.281C703.518 409.281 704.139 409.281 704.553 409.074L772.258 406.797L788.822 406.176L829.817 299.546H924.024Z" fill="#C1C9D3"/>
<path d="M628.773 273.044C628.566 271.802 626.496 271.802 626.703 273.044C626.91 275.943 627.117 279.049 627.324 281.947C627.324 283.19 629.602 283.19 629.395 281.947C629.188 279.049 628.981 275.943 628.773 273.044Z" fill="white"/>
<path d="M646.787 274.286C646.58 273.044 644.509 273.458 644.716 274.908C645.13 277.599 645.751 280.291 646.165 283.19C646.373 284.432 648.443 284.018 648.236 282.568C647.822 279.67 647.408 276.978 646.787 274.286Z" fill="white"/>
<path d="M665.628 282.154C665.007 279.463 664.386 276.771 663.972 273.872C663.765 272.63 661.694 273.044 661.901 274.494C662.522 277.185 663.144 279.877 663.558 282.775C663.972 284.018 665.835 283.397 665.628 282.154Z" fill="white"/>
<path d="M681.778 271.802C681.571 270.56 679.5 270.56 679.707 271.802C679.914 274.494 680.121 276.978 680.329 279.67C680.536 280.912 682.606 280.912 682.399 279.67C682.192 277.185 681.985 274.494 681.778 271.802Z" fill="white"/>
<path d="M637.263 292.3C637.056 291.057 634.985 291.057 635.192 292.3C635.399 294.784 635.606 297.269 635.813 299.753C636.02 300.996 638.091 300.996 637.884 299.753C637.677 297.269 637.47 294.784 637.263 292.3Z" fill="white"/>
<path d="M658.174 299.546C657.76 297.476 657.346 295.405 656.932 293.128C656.725 291.885 654.655 292.3 654.862 293.749C655.276 295.819 655.69 297.89 656.104 300.167C656.518 301.41 658.589 300.789 658.174 299.546Z" fill="white"/>
<path d="M680.328 298.097C679.707 296.026 679.293 293.749 678.672 291.678C678.258 290.436 676.394 290.85 676.601 292.3C677.223 294.37 677.637 296.648 678.258 298.718C678.672 299.96 680.535 299.339 680.328 298.097Z" fill="white"/>
<path d="M629.395 309.485C629.188 308.242 627.117 308.656 627.324 310.106C627.738 312.383 628.152 314.661 628.566 316.938C628.773 318.181 630.844 317.766 630.637 316.317C630.43 314.04 630.016 311.762 629.395 309.485Z" fill="white"/>
<path d="M650.514 319.63L648.65 313.211C648.236 311.969 646.373 312.383 646.58 313.833C647.201 315.903 647.822 317.973 648.443 320.251C648.857 321.493 650.928 320.872 650.514 319.63Z" fill="white"/>
<path d="M668.526 311.348C668.319 310.106 666.249 310.52 666.456 311.969C666.87 314.04 667.077 315.903 667.491 317.973C667.698 319.216 669.769 318.802 669.562 317.352L668.526 311.348Z" fill="white"/>
<path d="M692.959 309.899C692.959 308.656 690.888 308.656 690.888 309.899C691.095 312.383 691.095 314.868 691.302 317.352C691.302 318.595 693.373 318.595 693.373 317.352C693.166 314.868 692.959 312.383 692.959 309.899Z" fill="white"/>
<path d="M638.505 331.017C638.298 329.775 636.227 329.775 636.434 331.017C636.849 333.916 637.056 337.022 637.47 339.921C637.677 341.163 639.747 341.163 639.54 339.921C639.333 337.022 638.919 334.123 638.505 331.017Z" fill="white"/>
<path d="M661.694 332.26C661.487 331.017 659.417 331.432 659.624 332.881C660.038 335.573 660.659 338.057 661.073 340.749C661.28 341.991 663.351 341.577 663.144 340.128C662.73 337.436 662.316 334.951 661.694 332.26Z" fill="white"/>
<path d="M681.364 332.674C681.157 331.432 679.086 331.846 679.293 333.295C679.707 335.365 680.122 337.436 680.329 339.713C680.536 340.956 682.606 340.542 682.399 339.092C682.192 336.815 681.778 334.744 681.364 332.674Z" fill="white"/>
<path d="M700.412 296.026C700.205 294.784 698.134 294.784 698.341 296.026C698.548 298.718 698.755 301.203 698.962 303.894C699.169 305.137 701.24 305.137 701.033 303.894C701.033 301.41 700.826 298.718 700.412 296.026Z" fill="white"/>
<path d="M632.708 355.242C632.501 354 630.43 354 630.637 355.242C630.844 357.727 631.051 360.211 631.258 362.696C631.465 363.938 633.536 363.938 633.329 362.696C633.122 360.211 632.915 357.727 632.708 355.242Z" fill="white"/>
<path d="M649.893 356.691C649.686 355.449 647.615 355.449 647.822 356.691C648.029 358.969 648.236 361.246 648.443 363.317C648.65 364.559 650.721 364.559 650.514 363.317C650.307 361.246 650.1 358.969 649.893 356.691Z" fill="white"/>
<path d="M671.219 354.621C671.219 353.379 669.148 353.379 669.148 354.621C669.355 356.898 669.563 359.176 669.563 361.246C669.563 362.489 671.633 362.489 671.633 361.246C671.633 358.969 671.426 356.691 671.219 354.621Z" fill="white"/>
<path d="M692.131 352.343C692.131 351.101 690.06 351.101 690.06 352.343C690.06 355.242 690.267 358.141 690.267 360.832C690.267 362.075 692.338 362.075 692.338 360.832C692.338 357.934 692.338 355.242 692.131 352.343Z" fill="white"/>
<path d="M661.487 367.665C661.487 366.423 659.417 366.423 659.417 367.665C659.624 369.942 659.624 372.427 659.831 374.705C659.831 375.947 661.901 375.947 661.901 374.705C661.694 372.22 661.487 369.942 661.487 367.665Z" fill="white"/>
<path d="M684.469 369.528C684.469 368.286 682.399 368.286 682.399 369.528C682.606 371.599 682.606 373.669 682.813 375.947C682.813 377.189 684.884 377.189 684.884 375.947C684.676 373.669 684.469 371.599 684.469 369.528Z" fill="white"/>
<path d="M611.175 416.321C610.968 415.079 608.897 415.079 609.104 416.321C609.311 418.392 609.518 420.255 609.933 422.325C610.14 423.568 612.21 423.568 612.003 422.325C611.589 420.255 611.382 418.392 611.175 416.321Z" fill="white"/>
<path d="M634.985 417.149C634.778 415.907 632.707 415.907 632.914 417.149C633.121 419.22 633.329 421.083 633.536 423.154C633.743 424.396 635.813 424.396 635.606 423.154C635.399 421.083 635.192 419.013 634.985 417.149Z" fill="white"/>
<path d="M621.32 426.673V433.299C621.32 434.541 623.391 434.541 623.391 433.299V426.673C623.391 425.431 621.32 425.431 621.32 426.673Z" fill="white"/>
<path d="M604.757 429.365C604.757 428.123 602.686 428.123 602.686 429.365L603.1 435.369C603.1 436.612 605.171 436.612 605.171 435.369L604.757 429.365Z" fill="white"/>
<path d="M651.963 422.118C651.756 420.876 649.685 421.29 649.892 422.74C650.1 424.396 650.307 426.259 650.721 427.916C650.928 429.158 652.998 428.744 652.791 427.295C652.584 425.431 652.17 423.775 651.963 422.118Z" fill="white"/>
<path d="M669.977 158.961C665.422 158.34 661.074 159.582 657.555 162.481C655.484 164.137 658.383 167.036 660.453 165.379C662.731 163.309 666.044 162.481 668.942 162.895C671.634 163.309 672.669 159.168 669.977 158.961Z" fill="#111023"/>
<path d="M697.307 158.133C693.166 156.269 688.403 156.891 684.884 159.789C682.813 161.446 685.712 164.551 687.782 162.688C689.853 161.031 692.751 160.41 695.236 161.653C697.514 162.688 699.791 159.168 697.307 158.133Z" fill="#111023"/>
<path d="M686.747 193.124C685.091 184.221 683.227 175.525 681.571 166.829C681.364 165.587 679.294 166.001 679.501 167.45C681.157 175.939 682.813 184.635 684.677 193.124C682.813 193.331 680.95 193.538 678.879 193.952C677.637 194.159 677.637 196.23 678.879 196.023L685.919 194.987C686.954 194.987 687.161 193.745 686.747 193.124Z" fill="#D36C26"/>
<path d="M685.713 202.441C680.329 204.926 674.325 205.133 668.735 202.855C667.492 202.441 666.457 204.097 667.699 204.719C673.911 207.41 680.536 207.203 686.748 204.304C687.99 203.683 686.955 202.027 685.713 202.441Z" fill="#111023"/>
<path d="M665.629 174.904C667.573 174.904 669.148 172.772 669.148 170.142C669.148 167.512 667.573 165.38 665.629 165.38C663.685 165.38 662.109 167.512 662.109 170.142C662.109 172.772 663.685 174.904 665.629 174.904Z" fill="#111023"/>
<path d="M692.131 174.075C694.075 174.075 695.65 171.943 695.65 169.313C695.65 166.683 694.075 164.551 692.131 164.551C690.187 164.551 688.611 166.683 688.611 169.313C688.611 171.943 690.187 174.075 692.131 174.075Z" fill="#111023"/>
<defs>
<linearGradient id="paint0_linear" x1="-0.0505602" y1="371.265" x2="1240.2" y2="371.265" gradientUnits="userSpaceOnUse">
<stop stop-color="#DEA4D6"/>
<stop offset="0.4198" stop-color="#DCA4D6"/>
<stop offset="0.571" stop-color="#D5A3D8"/>
<stop offset="0.6787" stop-color="#CAA2DB"/>
<stop offset="0.7659" stop-color="#B99FE0"/>
<stop offset="0.8405" stop-color="#A39DE5"/>
<stop offset="0.9066" stop-color="#879AEC"/>
<stop offset="0.9649" stop-color="#6896F4"/>
<stop offset="1" stop-color="#5193FA"/>
</linearGradient>
<linearGradient id="paint1_linear" x1="681.547" y1="741.832" x2="681.547" y2="-0.192569" gradientUnits="userSpaceOnUse">
<stop stop-color="#DEA4D6"/>
<stop offset="0.4198" stop-color="#DCA4D6"/>
<stop offset="0.571" stop-color="#D5A3D8"/>
<stop offset="0.6787" stop-color="#CAA2DB"/>
<stop offset="0.7659" stop-color="#B99FE0"/>
<stop offset="0.8405" stop-color="#A39DE5"/>
<stop offset="0.9066" stop-color="#879AEC"/>
<stop offset="0.9649" stop-color="#6896F4"/>
<stop offset="1" stop-color="#5193FA"/>
</linearGradient>
<linearGradient id="paint2_linear" x1="430.579" y1="462.57" x2="430.579" y2="700.419" gradientUnits="userSpaceOnUse">
<stop stop-color="#CAEB8A"/>
<stop offset="0.4328" stop-color="#C8EA8B"/>
<stop offset="0.5888" stop-color="#C1E78E"/>
<stop offset="0.6999" stop-color="#B6E094"/>
<stop offset="0.7898" stop-color="#A5D89D"/>
<stop offset="0.8667" stop-color="#8FCDA7"/>
<stop offset="0.9337" stop-color="#74BFB5"/>
<stop offset="0.9939" stop-color="#55AFC4"/>
<stop offset="1" stop-color="#51ADC6"/>
</linearGradient>
<linearGradient id="paint3_linear" x1="859.825" y1="462.432" x2="859.825" y2="700.281" gradientUnits="userSpaceOnUse">
<stop stop-color="#CAEB8A"/>
<stop offset="0.4328" stop-color="#C8EA8B"/>
<stop offset="0.5888" stop-color="#C1E78E"/>
<stop offset="0.6999" stop-color="#B6E094"/>
<stop offset="0.7898" stop-color="#A5D89D"/>
<stop offset="0.8667" stop-color="#8FCDA7"/>
<stop offset="0.9337" stop-color="#74BFB5"/>
<stop offset="0.9939" stop-color="#55AFC4"/>
<stop offset="1" stop-color="#51ADC6"/>
</linearGradient>
<linearGradient id="paint4_linear" x1="893.808" y1="579.76" x2="1063.15" y2="683.232" gradientUnits="userSpaceOnUse">
<stop stop-color="#3C0887"/>
<stop offset="0.3227" stop-color="#3F0987"/>
<stop offset="0.5338" stop-color="#470E87"/>
<stop offset="0.7129" stop-color="#561588"/>
<stop offset="0.8732" stop-color="#6B1F89"/>
<stop offset="1" stop-color="#822A8A"/>
</linearGradient>
<linearGradient id="paint5_linear" x1="858.985" y1="625.908" x2="1079.53" y2="625.908" gradientUnits="userSpaceOnUse">
<stop stop-color="#FFC482"/>
<stop offset="0.3733" stop-color="#FFB460"/>
<stop offset="0.6175" stop-color="#FFAB4B"/>
<stop offset="0.824" stop-color="#FFA33C"/>
<stop offset="1" stop-color="#FD951F"/>
</linearGradient>
<linearGradient id="paint6_linear" x1="920.87" y1="605.249" x2="1009.82" y2="613.816" gradientUnits="userSpaceOnUse">
<stop stop-color="#F9E6D9"/>
<stop offset="0.121" stop-color="#FCF1EA"/>
<stop offset="0.2698" stop-color="#FEF9F6"/>
<stop offset="0.4751" stop-color="#FFFEFD"/>
<stop offset="1" stop-color="white"/>
</linearGradient>
<linearGradient id="paint7_linear" x1="865.71" y1="648.174" x2="867.385" y2="748.673" gradientUnits="userSpaceOnUse">
<stop stop-color="#CAEB8A"/>
<stop offset="0.4328" stop-color="#C8EA8B"/>
<stop offset="0.5888" stop-color="#C1E78E"/>
<stop offset="0.6999" stop-color="#B6E094"/>
<stop offset="0.7898" stop-color="#A5D89D"/>
<stop offset="0.8667" stop-color="#8FCDA7"/>
<stop offset="0.9337" stop-color="#74BFB5"/>
<stop offset="0.9939" stop-color="#55AFC4"/>
<stop offset="1" stop-color="#51ADC6"/>
</linearGradient>
<linearGradient id="paint8_linear" x1="302.389" y1="549.512" x2="231.295" y2="555.095" gradientUnits="userSpaceOnUse">
<stop stop-color="#FFAC4D"/>
<stop offset="0.2758" stop-color="#FFB867"/>
<stop offset="0.390625" stop-color="#FFC17B"/>
<stop offset="0.4562" stop-color="#FFBA6C"/>
<stop offset="0.4563" stop-color="#FD951F"/>
<stop offset="0.6094" stop-color="#FFB561"/>
<stop offset="0.7474" stop-color="#FFAB4B"/>
<stop offset="0.8738" stop-color="#FF9F33"/>
<stop offset="0.9924" stop-color="#9465F9"/>
<stop offset="1" stop-color="#FD951F"/>
</linearGradient>
<linearGradient id="paint9_linear" x1="302.085" y1="545.635" x2="230.991" y2="551.219" gradientUnits="userSpaceOnUse">
<stop stop-color="#FFE3C4"/>
<stop offset="0.2758" stop-color="#FFC078"/>
<stop offset="0.4563" stop-color="#FFB25A"/>
<stop offset="0.6094" stop-color="#FFAD51"/>
<stop offset="0.7474" stop-color="#FFAA49"/>
<stop offset="0.8738" stop-color="#FFA239"/>
<stop offset="0.963542" stop-color="#FD951F"/>
</linearGradient>
<linearGradient id="paint10_linear" x1="240.42" y1="549.571" x2="295.88" y2="550.316" gradientUnits="userSpaceOnUse">
<stop stop-color="#FFB96A"/>
<stop offset="0.2758" stop-color="#FFA238"/>
<stop offset="0.4563" stop-color="#FFB45F"/>
<stop offset="0.6094" stop-color="#FFAF55"/>
<stop offset="0.7474" stop-color="#FFA947"/>
<stop offset="0.8738" stop-color="#FF9F32"/>
<stop offset="0.9924" stop-color="#9465F9"/>
<stop offset="1" stop-color="#FD951F"/>
</linearGradient>
<linearGradient id="paint11_linear" x1="306.417" y1="403.387" x2="238.246" y2="403.387" gradientUnits="userSpaceOnUse">
<stop stop-color="#ECB885"/>
<stop offset="0.3293" stop-color="#FAB879"/>
<stop offset="0.510417" stop-color="#FFB36D"/>
<stop offset="0.5448" stop-color="#F7B67B"/>
<stop offset="0.7276" stop-color="#E78E42"/>
<stop offset="0.8912" stop-color="#E0741E"/>
<stop offset="1" stop-color="#FF994A"/>
</linearGradient>
<linearGradient id="paint12_linear" x1="436.465" y1="648.311" x2="438.14" y2="748.81" gradientUnits="userSpaceOnUse">
<stop stop-color="#CAEB8A"/>
<stop offset="0.4328" stop-color="#C8EA8B"/>
<stop offset="0.5888" stop-color="#C1E78E"/>
<stop offset="0.6999" stop-color="#B6E094"/>
<stop offset="0.7898" stop-color="#A5D89D"/>
<stop offset="0.8667" stop-color="#8FCDA7"/>
<stop offset="0.9337" stop-color="#74BFB5"/>
<stop offset="0.9939" stop-color="#55AFC4"/>
<stop offset="1" stop-color="#51ADC6"/>
</linearGradient>
<linearGradient id="paint13_linear" x1="926.053" y1="247.096" x2="926.053" y2="152.03" gradientUnits="userSpaceOnUse">
<stop stop-color="#F9E6D9"/>
<stop offset="0.121" stop-color="#FCF1EA"/>
<stop offset="0.2698" stop-color="#FEF9F6"/>
<stop offset="0.4751" stop-color="#FFFEFD"/>
<stop offset="1" stop-color="white"/>
</linearGradient>
<linearGradient id="paint14_linear" x1="800.575" y1="84.8326" x2="802.064" y2="236.699" gradientUnits="userSpaceOnUse">
<stop stop-color="#FD951F"/>
</linearGradient>
<linearGradient id="paint15_linear" x1="855.243" y1="84.2968" x2="856.732" y2="236.163" gradientUnits="userSpaceOnUse">
<stop stop-color="#FD951F"/>
</linearGradient>
<linearGradient id="paint16_linear" x1="925.259" y1="168.143" x2="920.42" y2="222.115" gradientUnits="userSpaceOnUse">
<stop stop-color="#3C0887"/>
<stop offset="0.3227" stop-color="#3F0987"/>
<stop offset="0.5338" stop-color="#470E87"/>
<stop offset="0.7129" stop-color="#561588"/>
<stop offset="0.8732" stop-color="#6B1F89"/>
<stop offset="1" stop-color="#822A8A"/>
</linearGradient>
<linearGradient id="paint17_linear" x1="901.933" y1="84.3138" x2="903.412" y2="235.241" gradientUnits="userSpaceOnUse">
<stop stop-color="#FD951F"/>
</linearGradient>
<linearGradient id="paint18_linear" x1="964.938" y1="83.2214" x2="966.427" y2="235.087" gradientUnits="userSpaceOnUse">
<stop stop-color="#570DC2"/>
<stop offset="0.3227" stop-color="#3F0987"/>
<stop offset="0.5338" stop-color="#470E87"/>
<stop offset="0.7129" stop-color="#561588"/>
<stop offset="0.8732" stop-color="#6B1F89"/>
<stop offset="1" stop-color="#C52DD2"/>
</linearGradient>
<linearGradient id="paint19_linear" x1="1048.15" y1="123.185" x2="1040.71" y2="238.201" gradientUnits="userSpaceOnUse">
<stop stop-color="#4C0AAC"/>
<stop offset="0.3227" stop-color="#3F0987"/>
<stop offset="0.5338" stop-color="#470E87"/>
<stop offset="0.7129" stop-color="#561588"/>
<stop offset="0.8732" stop-color="#6B1F89"/>
<stop offset="1" stop-color="#822A8A"/>
</linearGradient>
<linearGradient id="paint20_linear" x1="626.003" y1="454.961" x2="453.698" y2="601.848" gradientUnits="userSpaceOnUse">
<stop stop-color="#F9E6D9"/>
<stop offset="0.121" stop-color="#FCF1EA"/>
<stop offset="0.2698" stop-color="#FEF9F6"/>
<stop offset="0.4751" stop-color="#FFFEFD"/>
<stop offset="1" stop-color="white"/>
</linearGradient>
<linearGradient id="paint21_linear" x1="710.123" y1="399.161" x2="712.357" y2="670.509" gradientUnits="userSpaceOnUse">
<stop stop-color="#9E83F8"/>
<stop offset="0.3733" stop-color="#8B69FD"/>
<stop offset="0.6175" stop-color="#8967FA"/>
<stop offset="0.824" stop-color="#896FE0"/>
<stop offset="1" stop-color="#7159C1"/>
</linearGradient>
<linearGradient id="paint22_linear" x1="752.796" y1="921.775" x2="769.545" y2="489.628" gradientUnits="userSpaceOnUse">
<stop stop-color="#F9E6D9"/>
<stop offset="0.121" stop-color="#FCF1EA"/>
<stop offset="0.2698" stop-color="#FEF9F6"/>
<stop offset="0.4751" stop-color="#FFFEFD"/>
<stop offset="1" stop-color="white"/>
</linearGradient>
<linearGradient id="paint23_linear" x1="699.881" y1="200.48" x2="613.356" y2="197.117" gradientUnits="userSpaceOnUse">
<stop stop-color="#F7BE86"/>
<stop offset="0.3293" stop-color="#F7BC83"/>
<stop offset="0.5448" stop-color="#F7B67B"/>
<stop offset="0.7276" stop-color="#F7AC6C"/>
<stop offset="0.8912" stop-color="#F79E57"/>
<stop offset="1" stop-color="#F79244"/>
</linearGradient>
<linearGradient id="paint24_linear" x1="731.499" y1="593.615" x2="854.786" y2="486.636" gradientUnits="userSpaceOnUse">
<stop stop-color="#3C0887"/>
<stop offset="0.3227" stop-color="#3F0987"/>
<stop offset="0.5338" stop-color="#470E87"/>
<stop offset="0.7129" stop-color="#561588"/>
<stop offset="0.8732" stop-color="#6B1F89"/>
<stop offset="1" stop-color="#822A8A"/>
</linearGradient>
<linearGradient id="paint25_linear" x1="726.769" y1="419.061" x2="894.719" y2="461.379" gradientUnits="userSpaceOnUse">
<stop stop-color="#3C0887"/>
<stop offset="0.3227" stop-color="#3F0987"/>
<stop offset="0.5338" stop-color="#470E87"/>
<stop offset="0.7129" stop-color="#561588"/>
<stop offset="0.8732" stop-color="#6B1F89"/>
<stop offset="1" stop-color="#822A8A"/>
</linearGradient>
<linearGradient id="paint26_linear" x1="691.307" y1="559.8" x2="859.257" y2="602.119" gradientUnits="userSpaceOnUse">
<stop stop-color="#3C0887"/>
<stop offset="0.3227" stop-color="#3F0987"/>
<stop offset="0.5338" stop-color="#470E87"/>
<stop offset="0.7129" stop-color="#561588"/>
<stop offset="0.8732" stop-color="#6B1F89"/>
<stop offset="1" stop-color="#822A8A"/>
</linearGradient>
<linearGradient id="paint27_linear" x1="785.543" y1="246.247" x2="840.714" y2="227.743" gradientUnits="userSpaceOnUse">
<stop stop-color="#F7BE86"/>
<stop offset="0.3293" stop-color="#F7BC83"/>
<stop offset="0.5448" stop-color="#F7B67B"/>
<stop offset="0.7276" stop-color="#F7AC6C"/>
<stop offset="0.8912" stop-color="#F79E57"/>
<stop offset="1" stop-color="#F79244"/>
</linearGradient>
<linearGradient id="paint28_linear" x1="774.421" y1="274.072" x2="683.449" y2="301.982" gradientUnits="userSpaceOnUse">
<stop stop-color="#FFBD73"/>
<stop offset="0.3733" stop-color="#FFB45F"/>
<stop offset="0.6175" stop-color="#FFB25A"/>
<stop offset="0.776042" stop-color="#FDAB4F"/>
<stop offset="0.824" stop-color="#FCA94C"/>
<stop offset="1" stop-color="#FD951F"/>
</linearGradient>
<linearGradient id="paint29_linear" x1="698.236" y1="394.972" x2="772.173" y2="394.972" gradientUnits="userSpaceOnUse">
<stop stop-color="#F7BE86"/>
<stop offset="0.3293" stop-color="#F7BC83"/>
<stop offset="0.5448" stop-color="#F7B67B"/>
<stop offset="0.7276" stop-color="#F7AC6C"/>
<stop offset="0.8912" stop-color="#F79E57"/>
<stop offset="1" stop-color="#F79244"/>
</linearGradient>
<linearGradient id="paint30_linear" x1="720.303" y1="303.784" x2="628.736" y2="318.301" gradientUnits="userSpaceOnUse">
<stop stop-color="#FF9E31"/>
<stop offset="0.3733" stop-color="#FDAA4D"/>
<stop offset="0.6175" stop-color="#FFAD51"/>
<stop offset="0.824" stop-color="#FFA33A"/>
<stop offset="1" stop-color="#FD951F"/>
</linearGradient>
<linearGradient id="paint31_linear" x1="569.049" y1="333.113" x2="702.998" y2="333.113" gradientUnits="userSpaceOnUse">
<stop stop-color="#FFAA4A"/>
<stop offset="0.3733" stop-color="#FFA948"/>
<stop offset="0.6175" stop-color="#FFB765"/>
<stop offset="0.824" stop-color="#FFA238"/>
<stop offset="1" stop-color="#FD9621"/>
</linearGradient>
<linearGradient id="paint32_linear" x1="736.693" y1="407.171" x2="645.127" y2="421.688" gradientUnits="userSpaceOnUse">
<stop stop-color="#FFBA6B"/>
<stop offset="0.3733" stop-color="#FFC380"/>
<stop offset="0.6175" stop-color="#FCB15C"/>
<stop offset="0.824" stop-color="#FFA846"/>
<stop offset="1" stop-color="#FD951F"/>
</linearGradient>
</defs>
</svg>
