<svg width="483" height="121" viewBox="0 0 483 121" fill="none" xmlns="http://www.w3.org/2000/svg">
<path d="M50 120V85L18 97.8333L50 120Z" fill="#FD951F"/>
<path d="M53 121V85L83 98.2L53 121Z" fill="#FD951F"/>
<path d="M0 79H45L30.8793 65L16.7586 51L8.37931 65L0 79Z" fill="#402B62"/>
<path d="M104 79H58L72.4345 65L86.869 51L95.4345 65L104 79Z" fill="#402B62"/>
<path d="M85 49.505L53 0V80L85 49.505Z" fill="#7159C1"/>
<path d="M19 49.505L50 0V80L19 49.505Z" fill="#7159C1"/>
<path d="M170.298 67H142.501C142.063 67 141.657 66.9219 141.282 66.7656C140.907 66.6094 140.579 66.3984 140.298 66.1328C140.032 65.8516 139.821 65.5234 139.665 65.1484C139.508 64.7734 139.43 64.3672 139.43 63.9297V33.3906H145.524V60.9062H170.298V67ZM202.171 58.6094C202.171 59.4531 202.022 60.3672 201.725 61.3516C201.428 62.3203 200.944 63.2266 200.272 64.0703C199.616 64.8984 198.749 65.5938 197.671 66.1562C196.608 66.7188 195.311 67 193.78 67H182.788C181.944 67 181.03 66.8516 180.046 66.5547C179.077 66.2578 178.171 65.7812 177.327 65.125C176.499 64.4531 175.803 63.5859 175.241 62.5234C174.678 61.4453 174.397 60.1406 174.397 58.6094C174.397 57.7656 174.546 56.8516 174.842 55.8672C175.139 54.8828 175.616 53.9766 176.272 53.1484C176.944 52.3047 177.811 51.6016 178.874 51.0391C179.952 50.4766 181.257 50.1953 182.788 50.1953H193.78V56.0078H182.788C181.96 56.0078 181.319 56.2656 180.866 56.7812C180.413 57.2812 180.186 57.9062 180.186 58.6562C180.186 59.4531 180.444 60.0781 180.96 60.5312C181.491 60.9688 182.116 61.1875 182.835 61.1875H193.78C194.608 61.1875 195.249 60.9375 195.702 60.4375C196.155 59.9375 196.382 59.3125 196.382 58.5625V50.0547C196.382 49.2578 196.132 48.625 195.632 48.1562C195.147 47.6875 194.53 47.4531 193.78 47.4531H180.397V41.6641H193.78C194.624 41.6641 195.53 41.8125 196.499 42.1094C197.483 42.4062 198.389 42.8906 199.217 43.5625C200.061 44.2188 200.764 45.0859 201.327 46.1641C201.889 47.2266 202.171 48.5234 202.171 50.0547V58.6094ZM236.997 63.9297C236.997 64.3672 236.919 64.7734 236.762 65.1484C236.606 65.5234 236.387 65.8516 236.106 66.1328C235.841 66.3984 235.52 66.6094 235.145 66.7656C234.786 66.9219 234.395 67 233.973 67H220.192C219.442 67 218.637 66.9141 217.778 66.7422C216.934 66.5703 216.098 66.2969 215.27 65.9219C214.442 65.5312 213.637 65.0469 212.856 64.4688C212.091 63.875 211.419 63.1641 210.841 62.3359C210.262 61.4922 209.794 60.5234 209.434 59.4297C209.091 58.3359 208.919 57.1016 208.919 55.7266V41.6641H215.012V55.7266C215.012 56.5234 215.145 57.2422 215.411 57.8828C215.692 58.5078 216.067 59.0469 216.536 59.5C217.005 59.9531 217.552 60.3047 218.177 60.5547C218.817 60.7891 219.505 60.9062 220.239 60.9062H230.903V41.6641H236.997V63.9297ZM272.714 67H266.62V52.9375C266.62 52.1406 266.479 51.4297 266.198 50.8047C265.933 50.1641 265.565 49.6172 265.097 49.1641C264.628 48.7109 264.073 48.3672 263.433 48.1328C262.808 47.8828 262.128 47.7578 261.393 47.7578H250.729V67H244.636V44.6875C244.636 44.2656 244.714 43.875 244.87 43.5156C245.026 43.1406 245.245 42.8203 245.526 42.5547C245.808 42.2734 246.136 42.0547 246.511 41.8984C246.886 41.7422 247.284 41.6641 247.706 41.6641H261.44C262.206 41.6641 263.011 41.75 263.854 41.9219C264.714 42.0938 265.558 42.375 266.386 42.7656C267.229 43.1406 268.026 43.625 268.776 44.2188C269.542 44.7969 270.214 45.5078 270.792 46.3516C271.386 47.1797 271.854 48.1406 272.198 49.2344C272.542 50.3281 272.714 51.5625 272.714 52.9375V67ZM304.517 67H287.993C287.149 67 286.227 66.8516 285.227 66.5547C284.227 66.2578 283.298 65.7734 282.438 65.1016C281.595 64.4141 280.884 63.5312 280.306 62.4531C279.743 61.3594 279.462 60.0234 279.462 58.4453V50.1953C279.462 49.6172 279.524 49.0078 279.649 48.3672C279.79 47.7266 280.001 47.0938 280.282 46.4688C280.563 45.8281 280.923 45.2188 281.36 44.6406C281.813 44.0625 282.352 43.5547 282.977 43.1172C283.618 42.6797 284.352 42.3281 285.181 42.0625C286.009 41.7969 286.946 41.6641 287.993 41.6641H304.517V47.7578H287.993C287.196 47.7578 286.587 47.9609 286.165 48.3672C285.759 48.7734 285.556 49.3984 285.556 50.2422V58.4453C285.556 59.2422 285.767 59.8516 286.188 60.2734C286.61 60.6953 287.227 60.9062 288.04 60.9062H304.517V67ZM339.648 67H333.554V50.1953C333.554 49.3984 333.351 48.7969 332.944 48.3906C332.538 47.9688 331.929 47.7578 331.116 47.7578H320.124V41.6641H331.116C331.694 41.6641 332.304 41.7344 332.944 41.875C333.585 42 334.218 42.2031 334.843 42.4844C335.483 42.7656 336.093 43.1328 336.671 43.5859C337.249 44.0234 337.757 44.5625 338.194 45.2031C338.632 45.8281 338.983 46.5547 339.249 47.3828C339.515 48.2109 339.648 49.1484 339.648 50.1953V67ZM317.663 67H311.569V30.9531H317.663V67ZM377.919 67H355.935C355.372 67 354.763 66.9375 354.107 66.8125C353.466 66.6719 352.825 66.4609 352.185 66.1797C351.56 65.8984 350.958 65.5391 350.38 65.1016C349.802 64.6484 349.286 64.1094 348.833 63.4844C348.396 62.8438 348.044 62.1094 347.778 61.2812C347.513 60.4375 347.38 59.4922 347.38 58.4453V41.9453C347.38 41.3828 347.443 40.7812 347.568 40.1406C347.708 39.4844 347.919 38.8438 348.2 38.2188C348.482 37.5781 348.849 36.9688 349.302 36.3906C349.755 35.8125 350.294 35.3047 350.919 34.8672C351.56 34.4141 352.294 34.0547 353.122 33.7891C353.95 33.5234 354.888 33.3906 355.935 33.3906H377.919V39.4844H355.935C355.138 39.4844 354.528 39.6953 354.107 40.1172C353.685 40.5391 353.474 41.1641 353.474 41.9922V58.4453C353.474 59.2266 353.685 59.8359 354.107 60.2734C354.544 60.6953 355.153 60.9062 355.935 60.9062H377.919V67ZM410.941 58.6094C410.941 59.4531 410.792 60.3672 410.495 61.3516C410.198 62.3203 409.714 63.2266 409.042 64.0703C408.386 64.8984 407.519 65.5938 406.441 66.1562C405.378 66.7188 404.081 67 402.55 67H391.558C390.714 67 389.8 66.8516 388.816 66.5547C387.847 66.2578 386.941 65.7812 386.097 65.125C385.269 64.4531 384.573 63.5859 384.011 62.5234C383.448 61.4453 383.167 60.1406 383.167 58.6094C383.167 57.7656 383.316 56.8516 383.612 55.8672C383.909 54.8828 384.386 53.9766 385.042 53.1484C385.714 52.3047 386.581 51.6016 387.644 51.0391C388.722 50.4766 390.027 50.1953 391.558 50.1953H402.55V56.0078H391.558C390.73 56.0078 390.089 56.2656 389.636 56.7812C389.183 57.2812 388.956 57.9062 388.956 58.6562C388.956 59.4531 389.214 60.0781 389.73 60.5312C390.261 60.9688 390.886 61.1875 391.605 61.1875H402.55C403.378 61.1875 404.019 60.9375 404.472 60.4375C404.925 59.9375 405.152 59.3125 405.152 58.5625V50.0547C405.152 49.2578 404.902 48.625 404.402 48.1562C403.917 47.6875 403.3 47.4531 402.55 47.4531H389.167V41.6641H402.55C403.394 41.6641 404.3 41.8125 405.269 42.1094C406.253 42.4062 407.159 42.8906 407.987 43.5625C408.831 44.2188 409.534 45.0859 410.097 46.1641C410.659 47.2266 410.941 48.5234 410.941 50.0547V58.6094ZM440.236 47.7578H426.525C425.697 47.7578 425.072 47.9688 424.65 48.3906C424.228 48.7969 424.017 49.3984 424.017 50.1953V67H417.923V50.1953C417.923 49.1484 418.056 48.2109 418.322 47.3828C418.587 46.5547 418.939 45.8281 419.376 45.2031C419.829 44.5625 420.345 44.0234 420.923 43.5859C421.501 43.1328 422.103 42.7656 422.728 42.4844C423.368 42.2031 424.009 42 424.65 41.875C425.306 41.7344 425.915 41.6641 426.478 41.6641H440.236V47.7578ZM470.679 58.4453C470.679 59.4922 470.546 60.4375 470.281 61.2812C470.015 62.1094 469.663 62.8438 469.226 63.4844C468.788 64.1094 468.281 64.6484 467.703 65.1016C467.124 65.5391 466.515 65.8984 465.874 66.1797C465.249 66.4609 464.609 66.6719 463.953 66.8125C463.312 66.9375 462.703 67 462.124 67H445.624V60.9062H462.078C462.906 60.9062 463.531 60.6953 463.953 60.2734C464.374 59.8516 464.585 59.2422 464.585 58.4453C464.507 56.8203 463.687 56.0078 462.124 56.0078H452.679C451.335 56.0078 450.195 55.7734 449.257 55.3047C448.32 54.8359 447.554 54.25 446.96 53.5469C446.382 52.8438 445.96 52.0859 445.695 51.2734C445.445 50.4609 445.32 49.7031 445.32 49C445.32 47.6406 445.562 46.5 446.046 45.5781C446.531 44.6406 447.14 43.8828 447.874 43.3047C448.609 42.7266 449.406 42.3125 450.265 42.0625C451.124 41.7969 451.929 41.6641 452.679 41.6641H467.656V47.7578H452.726C452.413 47.7578 452.163 47.7969 451.976 47.875C451.804 47.9375 451.671 48.0312 451.578 48.1562C451.499 48.2656 451.453 48.3906 451.437 48.5312C451.421 48.6562 451.413 48.7812 451.413 48.9062C451.429 49.1562 451.476 49.3516 451.554 49.4922C451.632 49.6328 451.726 49.7344 451.835 49.7969C451.96 49.8594 452.093 49.8984 452.234 49.9141C452.39 49.9141 452.538 49.9141 452.679 49.9141H462.124C463.687 49.9141 465.015 50.1953 466.109 50.7578C467.203 51.3203 468.085 52.0312 468.757 52.8906C469.429 53.7344 469.913 54.6562 470.21 55.6562C470.523 56.6562 470.679 57.5859 470.679 58.4453Z" fill="#5C3B7D"/>
<path d="M199.402 83.8022H200.866L206.292 93.5287L211.882 83.8022H213.23L206.948 94.7006V100.56H205.718V94.7006L199.402 83.8022ZM217.119 94.3608C217.119 97.8686 218.623 99.6225 221.631 99.6225C224.639 99.6225 226.143 97.8686 226.143 94.3608C226.143 90.9155 224.639 89.1928 221.631 89.1928C218.623 89.1928 217.119 90.9155 217.119 94.3608ZM215.889 94.4077C215.889 90.228 217.803 88.1381 221.631 88.1381C225.459 88.1381 227.373 90.228 227.373 94.4077C227.373 98.5795 225.459 100.665 221.631 100.665C217.819 100.665 215.905 98.5795 215.889 94.4077ZM241.634 88.2553V100.56H240.732L240.591 98.9897C239.177 100.037 237.599 100.56 235.857 100.56C232.95 100.56 231.497 99.0327 231.497 95.978V88.2553H232.728V96.0131C232.728 98.31 233.79 99.4584 235.915 99.4584C237.47 99.4584 238.966 98.9389 240.404 97.8998V88.2553H241.634ZM246.356 100.56V88.2553H247.235L247.387 90.2944C248.621 88.935 249.996 88.2553 251.512 88.2553V89.2397C250.043 89.2397 248.735 89.9545 247.586 91.3842V100.56H246.356ZM262.819 83.8022V99.5053H272.522V100.56H261.588V83.8022H262.819ZM275.251 97.0795C275.251 94.6342 276.876 93.4116 280.126 93.4116C281.275 93.4116 282.501 93.4897 283.806 93.6459V92.1342C283.806 90.2514 282.623 89.31 280.255 89.31C278.99 89.31 277.693 89.5053 276.365 89.8959V88.8412C277.693 88.4506 278.99 88.2553 280.255 88.2553C283.443 88.2553 285.037 89.5287 285.037 92.0756V100.56H284.287L284.005 99.3412C282.466 100.154 280.974 100.56 279.529 100.56C276.677 100.56 275.251 99.3998 275.251 97.0795ZM280.126 94.4662C277.697 94.4662 276.482 95.3256 276.482 97.0444C276.482 98.685 277.498 99.5053 279.529 99.5053C281.029 99.5053 282.455 99.1069 283.806 98.31V94.7006C282.501 94.5444 281.275 94.4662 280.126 94.4662ZM299.895 88.2553V100.56H298.993L298.852 98.9897C297.438 100.037 295.86 100.56 294.118 100.56C291.211 100.56 289.758 99.0327 289.758 95.978V88.2553H290.989V96.0131C290.989 98.31 292.051 99.4584 294.176 99.4584C295.731 99.4584 297.227 98.9389 298.665 97.8998V88.2553H299.895ZM304.617 100.56V88.2553H305.496L305.648 89.8256C307.218 88.7787 308.757 88.2553 310.265 88.2553C313.257 88.2553 314.753 89.5483 314.753 92.1342V100.56H313.523V92.0991C313.523 90.2709 312.418 89.3569 310.207 89.3569C308.73 89.3569 307.277 89.8764 305.847 90.9155V100.56H304.617ZM328.381 100.208C327.366 100.443 326.272 100.56 325.1 100.56C320.96 100.56 318.889 98.4311 318.889 94.1733C318.889 90.228 320.96 88.2553 325.1 88.2553C326.272 88.2553 327.366 88.3725 328.381 88.6069V89.6616C327.288 89.4272 326.233 89.31 325.217 89.31C321.897 89.31 320.237 90.9311 320.237 94.1733C320.237 97.728 321.897 99.5053 325.217 99.5053C326.233 99.5053 327.288 99.3881 328.381 99.1537V100.208ZM332.224 100.56V83.8022H333.455V89.5912C334.892 88.7006 336.365 88.2553 337.873 88.2553C340.865 88.2553 342.361 89.7827 342.361 92.8373V100.56H341.13V92.3334C341.13 90.3491 340.025 89.3569 337.814 89.3569C336.338 89.3569 334.884 89.8764 333.455 90.9155V100.56H332.224ZM346.965 99.9741V98.685C348.723 99.31 350.661 99.6225 352.778 99.6225C356.286 99.6225 358.04 98.2944 358.04 95.6381C358.04 93.685 356.899 92.7084 354.618 92.7084H351.173C348.055 92.7084 346.497 91.3022 346.497 88.4897C346.497 85.2866 348.782 83.685 353.352 83.685C355.227 83.685 357.044 83.9194 358.801 84.3881V85.56C357.044 85.0131 355.227 84.7397 353.352 84.7397C349.602 84.7397 347.727 85.9897 347.727 88.4897C347.727 90.5209 348.876 91.5366 351.173 91.5366H354.618C357.719 91.5366 359.27 92.9037 359.27 95.6381C359.27 98.9975 357.106 100.677 352.778 100.677C350.661 100.677 348.723 100.443 346.965 99.9741ZM364.625 98.7553C365.867 99.1772 367.011 99.3881 368.058 99.3881C371.238 99.3881 372.828 97.6186 372.828 94.0795C372.828 90.9311 371.246 89.3569 368.082 89.3569C366.988 89.3569 365.836 89.4506 364.625 89.6381V98.7553ZM363.394 88.7592C364.793 88.4233 366.363 88.2553 368.105 88.2553C372.05 88.2553 374.023 90.2045 374.023 94.103C374.023 98.4077 372.039 100.56 368.07 100.56C367.086 100.56 365.937 100.365 364.625 99.9741V105.013H363.394V88.7592ZM377.456 97.0795C377.456 94.6342 379.081 93.4116 382.331 93.4116C383.479 93.4116 384.706 93.4897 386.01 93.6459V92.1342C386.01 90.2514 384.827 89.31 382.46 89.31C381.194 89.31 379.897 89.5053 378.569 89.8959V88.8412C379.897 88.4506 381.194 88.2553 382.46 88.2553C385.647 88.2553 387.241 89.5287 387.241 92.0756V100.56H386.491L386.21 99.3412C384.671 100.154 383.178 100.56 381.733 100.56C378.882 100.56 377.456 99.3998 377.456 97.0795ZM382.331 94.4662C379.901 94.4662 378.686 95.3256 378.686 97.0444C378.686 98.685 379.702 99.5053 381.733 99.5053C383.233 99.5053 384.659 99.1069 386.01 98.31V94.7006C384.706 94.5444 383.479 94.4662 382.331 94.4662ZM400.869 100.208C399.853 100.443 398.76 100.56 397.588 100.56C393.447 100.56 391.377 98.4311 391.377 94.1733C391.377 90.228 393.447 88.2553 397.588 88.2553C398.76 88.2553 399.853 88.3725 400.869 88.6069V89.6616C399.775 89.4272 398.72 89.31 397.705 89.31C394.385 89.31 392.724 90.9311 392.724 94.1733C392.724 97.728 394.385 99.5053 397.705 99.5053C398.72 99.5053 399.775 99.3881 400.869 99.1537V100.208ZM409.669 88.2553C413.036 88.2553 414.72 90.1186 414.72 93.8452C414.72 94.1108 414.712 94.3881 414.696 94.6772H405.356C405.356 97.8959 407.059 99.5053 410.466 99.5053C411.864 99.5053 413.106 99.31 414.192 98.9194V99.9741C413.106 100.365 411.864 100.56 410.466 100.56C406.239 100.56 404.126 98.4623 404.126 94.267C404.126 90.2592 405.973 88.2553 409.669 88.2553ZM405.356 93.5756H413.536C413.489 90.7162 412.2 89.2866 409.669 89.2866C406.934 89.2866 405.497 90.7162 405.356 93.5756Z" fill="#FD951F"/>
</svg>
