<svg width="41" height="86" viewBox="0 0 41 86" fill="none" xmlns="http://www.w3.org/2000/svg">
<path d="M20.481 0C21.3232 0 22.0068 0.668513 22.0068 1.49489V28.1266L27.8613 19.6452C28.3337 18.9611 29.281 18.7817 29.9792 19.2446C30.6775 19.7074 30.8618 20.6366 30.3894 21.3207L21.7456 33.8442C21.3696 34.3883 20.6763 34.6287 20.0342 34.4362C19.3933 34.2436 18.9551 33.6636 18.9551 33.0071V1.49489C18.9551 0.668513 19.6375 0 20.481 0Z" fill="white"/>
<path d="M11.8347 21.0073L20.481 33.0059L11.8347 21.0073Z" fill="white"/>
<path d="M11.8335 19.5124C12.3132 19.5124 12.7844 19.7325 13.081 20.1451L21.7273 32.1424C22.2131 32.8169 22.0495 33.7497 21.3611 34.2257C20.6726 34.7005 19.7192 34.5414 19.2346 33.8669L10.5884 21.8696C10.1025 21.1951 10.2649 20.2611 10.9546 19.7863C11.2219 19.6021 11.5295 19.5124 11.8335 19.5124Z" fill="white"/>
<path d="M33.5974 17.7007H40.9595V85.6845H0V17.7007H7.28394V20.6904H3.05176V82.6947H37.9077V20.6904H33.5974" fill="white"/>
<path d="M33.5974 25.785H39.4336V28.7747H31.5686L33.5974 25.785Z" fill="white"/>
<path d="M9.01245 28.7747H1.52588V25.785H7.28394L9.01245 28.7747Z" fill="white"/>
<rect x="1.52588" y="67.521" width="37.9077" height="2.98977" fill="white"/>
<path d="M20.4797 78.8738C21.6933 78.8738 22.677 77.91 22.677 76.7211C22.677 75.5322 21.6933 74.5685 20.4797 74.5685C19.2662 74.5685 18.2825 75.5322 18.2825 76.7211C18.2825 77.91 19.2662 78.8738 20.4797 78.8738Z" fill="white"/>
<path fill-rule="evenodd" clip-rule="evenodd" d="M20 40C14.48 40 10 44.48 10 50C10 55.52 14.48 60 20 60C25.52 60 30 55.52 30 50C30 44.48 25.52 40 20 40ZM19 57.93C15.05 57.44 12 54.08 12 50C12 49.38 12.08 48.79 12.21 48.21L17 53V54C17 55.1 17.9 56 19 56V57.93ZM24 54C24.9 54 25.64 54.58 25.9 55.39C27.2 53.97 28 52.08 28 50C28 46.65 25.93 43.78 23 42.59V43C23 44.1 22.1 45 21 45H19V47C19 47.55 18.55 48 18 48H16V50H22C22.55 50 23 50.45 23 51V54H24Z" fill="white"/>
</svg>
