<svg width="73" height="70" viewBox="0 0 73 70" fill="none" xmlns="http://www.w3.org/2000/svg">
<path d="M37.8049 15.7838L30.1874 23.4013C29.6786 23.9101 29.3899 24.6113 29.3899 25.3401V39.0763C29.3899 40.5888 30.6274 41.8263 32.1399 41.8263H44.5149C45.6149 41.8263 46.6049 41.1663 47.0449 40.1626L51.5274 29.6988C52.6824 26.9763 50.6886 23.9513 47.7324 23.9513H39.9636L41.2699 17.6538C41.4074 16.9663 41.2011 16.2651 40.7061 15.7701C39.8949 14.9726 38.6024 14.9726 37.8049 15.7838Z" fill="#5C3B7D" fill-opacity="0.88"/>
<path d="M23.8899 41.8263C25.4024 41.8263 26.6399 40.5888 26.6399 39.0763V28.0763C26.6399 26.5638 25.4024 25.3263 23.8899 25.3263C22.3774 25.3263 21.1399 26.5638 21.1399 28.0763V39.0763C21.1399 40.5888 22.3774 41.8263 23.8899 41.8263Z" fill="#5C3B7D" fill-opacity="0.88"/>
<path d="M24.6829 69.8333H48.2841C51.2137 69.8333 52.695 65.8733 50.6212 63.5633L38.8041 50.4C38.1892 49.7134 37.3542 49.3276 36.4835 49.3276C35.6128 49.3276 34.7779 49.7134 34.1629 50.4L22.3458 63.5633C20.305 65.8733 21.7533 69.8333 24.6829 69.8333Z" fill="#FD951F"/>
<path d="M66.125 0.166664H6.87499C3.25416 0.166664 0.291656 3.46666 0.291656 7.5V51.5C0.291656 55.5333 3.25416 58.8333 6.87499 58.8333H16.75C18.5604 58.8333 20.0417 57.1833 20.0417 55.1667C20.0417 53.15 18.5604 51.5 16.75 51.5H10.1667C8.35624 51.5 6.87499 49.85 6.87499 47.8333V11.1667C6.87499 9.15 8.35624 7.5 10.1667 7.5H62.8333C64.6437 7.5 66.125 9.15 66.125 11.1667V47.8333C66.125 49.85 64.6437 51.5 62.8333 51.5H56.25C54.4396 51.5 52.9583 53.15 52.9583 55.1667C52.9583 57.1833 54.4396 58.8333 56.25 58.8333H66.125C69.7458 58.8333 72.7083 55.5333 72.7083 51.5V7.5C72.7083 3.46666 69.7458 0.166664 66.125 0.166664Z" fill="#FD951F"/>
</svg>
